<?xml version="1.0" encoding="UTF-8"?>
<svg width="200px" height="200px" viewBox="0 0 200 200" version="1.1" xmlns="http://www.w3.org/2000/svg" xmlns:xlink="http://www.w3.org/1999/xlink">
    <!-- Generator: Sketch 51.1 (57501) - http://www.bohemiancoding.com/sketch -->
    <title>shine</title>
    <desc>Created with Sketch.</desc>
    <defs>
        <radialGradient cx="50%" cy="50%" fx="50%" fy="50%" r="53.272256%" gradientTransform="translate(0.500000,0.500000),scale(1.000000,0.999902),rotate(90.000000),translate(-0.500000,-0.500000)" id="radialGradient-1">
            <stop stop-color="#FFF3B5" offset="0%"></stop>
            <stop stop-color="#FFFFFF" offset="100%"></stop>
        </radialGradient>
    </defs>
    <g id="引导3" stroke="none" stroke-width="1" fill="none" fill-rule="evenodd">
        <g id="领取2" transform="translate(-89.000000, -253.000000)" fill="url(#radialGradient-1)">
            <g id="Group-4-Copy-4">
                <path d="M188.304296,353.276128 L188.297933,353.267168 L188.289468,353.26016 L188.279478,353.255582 L188.268643,353.253745 L188.257702,353.254775 L188.2474,353.258602 L188.23844,353.264965 L188.231432,353.27343 L188.226854,353.28342 L188.225017,353.294255 L197.571974,452.562898 L188.267085,452.562898 L178.962196,452.562898 L187.742059,356.143326 L171.562705,451.588736 L162.574873,449.180454 L153.587041,446.772172 L187.022958,355.910413 L146.691812,443.916075 L138.633543,439.26363 L130.575273,434.611186 L186.388643,355.499319 L124.654206,430.067792 L118.074656,423.488242 L111.495106,416.908692 L185.88234,354.938059 L106.951712,410.987625 L102.299268,402.929355 L97.6468234,394.871086 L185.538553,354.264884 L94.7907263,387.975857 L92.3824439,378.988025 L89.9741615,370.000193 L185.380712,353.525667 L89,362.600701 L89,353.295813 L89,343.990924 L185.419572,352.770787 L89.9741615,336.591433 L92.3824439,327.603601 L94.7907263,318.615769 L185.652485,352.051686 L97.6468234,311.72054 L102.299268,303.66227 L106.951712,295.604001 L186.063579,351.41737 L111.495106,289.682934 L118.074656,283.103384 L124.654206,276.523834 L186.624839,350.911068 L130.575273,271.98044 L138.633543,267.327996 L146.691812,262.675551 L187.298014,350.567281 L153.587041,259.819454 L162.574873,257.411172 L171.562705,255.002889 L187.603444,347.897312 L178.962196,253 L188.267085,253 L197.571974,253 L188.272039,351.769251 L188.31442,352.014686 L205.237719,254.009215 L214.225552,256.417497 L223.213384,258.825779 L188.403646,352.53141 L188.411221,352.575276 L230.356722,261.784647 L238.414991,266.437091 L246.473261,271.089535 L188.451025,352.798135 L188.476012,352.777319 L252.607385,275.796414 L259.186934,282.375963 L265.766484,288.955513 L188.573566,352.8627 L188.603089,352.84906 L270.473363,295.089637 L275.125807,303.147906 L279.778251,311.206176 L188.67522,352.956781 L188.707268,352.951247 L282.737119,318.349514 L285.145401,327.337346 L287.553683,336.325179 L188.749061,353.073967 L188.781449,353.076916 L288.562898,343.990924 L288.562898,353.295813 L288.562898,362.600701 L188.790057,353.206271 L188.820577,353.217502 L287.553683,370.266447 L285.145401,379.254279 L282.737119,388.242112 L188.795412,353.344677 L188.821986,353.363424 L279.778251,395.38545 L275.125807,403.443719 L270.473363,411.501989 L188.764763,353.479753 L188.785579,353.50474 L265.766484,417.636113 L259.186934,424.215662 L252.607385,430.795212 L188.700198,353.602294 L188.713837,353.631817 L246.473261,435.502091 L238.414991,440.154535 L230.356722,444.806979 L188.606117,353.703948 L188.611651,353.735996 L223.213384,447.765846 L214.225552,450.174129 L205.237719,452.582411 L188.487486,353.769265 L188.304296,353.276128 Z" id="shine"></path>
            </g>
        </g>
    </g>
</svg>