<?xml version="1.0" encoding="UTF-8"?>
<svg width="20px" height="16px" viewBox="0 0 20 16" version="1.1" xmlns="http://www.w3.org/2000/svg" xmlns:xlink="http://www.w3.org/1999/xlink">
    <!-- Generator: Sketch 51.1 (57501) - http://www.bohemiancoding.com/sketch -->
    <title>wechat</title>
    <desc>Created with Sketch.</desc>
    <defs></defs>
    <g id="引导3" stroke="none" stroke-width="1" fill="none" fill-rule="evenodd">
        <g id="领取1" transform="translate(-124.000000, -480.000000)" fill="#FFFFFF" fill-rule="nonzero">
            <g id="list">
                <g id="reg_btn" transform="translate(50.000000, 464.000000)">
                    <g id="Group-2" transform="translate(74.000000, 12.000000)">
                        <g id="wechat" transform="translate(0.000000, 4.000000)">
                            <path d="M19.830303,9.12688995 C19.2297165,7.02009569 17.6281525,5.69722488 15.1257087,5.15827751 C14.5751711,5.06028708 14.3249267,4.91330144 14.2248289,4.42334928 C14.1747801,4.03138756 13.9245357,3.68842105 13.7243402,3.39444976 C12.3730205,1.2876555 10.2209189,0.16076555 7.46823069,0.0137799043 C5.46627566,0.0627751196 3.96480938,0.454736842 2.71358749,1.33665072 C0.561485826,2.85550239 -0.289345064,4.76631579 0.111045943,7.06909091 C0.361290323,8.34296651 1.06197458,9.42086124 2.36324536,10.4497608 C2.61348974,10.6457416 2.66353861,10.7927273 2.56344086,11.0377033 C2.41329423,11.4296651 2.26314761,11.8216268 2.16304985,12.3115789 C2.11300098,12.4585646 2.16304985,12.7035407 2.26314761,12.8505263 C2.36324536,12.9485167 2.66353861,12.8505263 2.76363636,12.8505263 C2.96383187,12.6545455 3.21407625,12.556555 3.5143695,12.4095694 C3.81466276,12.2625837 4.16500489,12.0666029 4.51534702,11.9196172 C4.66549365,11.870622 4.91573803,11.8216268 5.11593353,11.8216268 C6.16695992,11.870622 7.01779081,11.9196172 7.81857283,12.0176077 C7.91867058,12.0176077 8.0688172,12.1645933 8.16891496,12.2625837 C9.26999022,14.4183732 11.8224829,15.6922488 14.3249267,15.3492823 C15.6261975,15.1533014 16.4770283,15.3492823 17.3278592,15.8882297 C17.427957,15.9862201 17.5781036,15.9862201 17.7282502,15.9862201 C17.7782991,15.9862201 17.8783969,15.9862201 17.9284457,15.9862201 L18.0285435,15.9862201 L18.0285435,15.8882297 C18.0285435,15.8392344 18.0285435,15.7902392 18.0285435,15.741244 C18.0285435,15.5942584 18.0785924,15.4472727 18.0285435,15.3492823 C17.6281525,14.5653589 17.7782991,14.0264115 18.5290323,13.3894737 C19.7802542,12.2135885 20.2807429,10.6947368 19.830303,9.12688995 Z M3.21407625,11.4296651 C3.26412512,11.2336842 3.314174,11.0377033 3.41427175,10.8417225 C3.61446725,10.4497608 3.5143695,10.1557895 3.11397849,9.86181818 C1.96285435,9.02889952 1.31221896,8.14698565 1.06197458,7.02009569 C0.611534702,5.06028708 1.31221896,3.39444976 3.11397849,2.12057416 C4.26510264,1.2876555 5.71652004,0.89569378 7.11788856,0.89569378 C9.16989247,0.89569378 11.2719453,1.72861244 12.5231672,3.29645933 C12.7734115,3.63942584 12.973607,4.03138756 13.2238514,4.4723445 C13.3239492,4.61933014 13.373998,4.815311 13.4740958,5.01129187 C11.372043,5.15827751 9.67038123,5.99119617 8.61935484,7.3630622 C7.76852395,8.44095694 7.46823069,9.81282297 7.76852395,11.184689 C7.61837732,11.184689 7.46823069,11.184689 7.26803519,11.184689 C6.81759531,11.184689 6.4172043,11.184689 6.06686217,11.0866986 C5.06588465,10.8417225 4.31515152,10.9397129 3.61446725,11.4296651 C3.5143695,11.4786603 3.41427175,11.5276555 3.26412512,11.5766507 C3.21407625,11.5766507 3.21407625,11.6256459 3.16402737,11.6256459 C3.16402737,11.5766507 3.21407625,11.4786603 3.21407625,11.4296651 Z M18.1786901,12.2625837 C17.828348,12.7035407 17.4780059,13.0465072 17.1777126,13.2914833 C16.7272727,13.6344498 16.627175,13.9774163 16.8273705,14.4673684 C16.8774194,14.5163636 16.8774194,14.6143541 16.8774194,14.6633493 C16.8774194,14.7123445 16.8774194,14.7123445 16.8774194,14.7613397 C16.4770283,14.369378 16.0265885,14.2713876 15.6261975,14.2713876 C15.3259042,14.2713876 15.0756598,14.3203828 14.7753666,14.369378 C14.6252199,14.369378 14.4750733,14.4183732 14.3749756,14.4183732 C12.3730205,14.6633493 10.6713587,13.9774163 9.47018573,12.5075598 C8.21896383,10.9887081 8.36911046,8.83291866 9.92062561,7.41205742 C10.971652,6.43215311 12.5231672,5.89320574 14.0746823,5.94220096 C15.6261975,6.04019139 17.0776149,6.67712919 18.0785924,7.80401914 C19.1796676,9.12688995 19.2797654,10.8907177 18.1786901,12.2625837 Z" id="Shape"></path>
                            <path d="M3.96480938,4.03138756 C3.96480938,4.49139583 4.34573935,4.86430622 4.81564027,4.86430622 C5.2855412,4.86430622 5.66647116,4.49139583 5.66647116,4.03138756 C5.66647116,3.57137929 5.2855412,3.1984689 4.81564027,3.1984689 C4.34573935,3.1984689 3.96480938,3.57137929 3.96480938,4.03138756 Z" id="Shape"></path>
                            <path d="M8.86959922,4.03138756 C8.86959922,4.49139583 9.25052918,4.86430622 9.72043011,4.86430622 C10.190331,4.86430622 10.571261,4.49139583 10.571261,4.03138756 C10.571261,3.57137929 10.190331,3.1984689 9.72043011,3.1984689 C9.25052918,3.1984689 8.86959922,3.57137929 8.86959922,4.03138756 Z" id="Shape"></path>
                            <path d="M11.2719453,8.73492823 C11.2719453,9.08669926 11.5632446,9.37186603 11.9225806,9.37186603 C12.2819166,9.37186603 12.573216,9.08669926 12.573216,8.73492823 C12.573216,8.3831572 12.2819166,8.09799043 11.9225806,8.09799043 C11.5632446,8.09799043 11.2719453,8.3831572 11.2719453,8.73492823 Z" id="Shape"></path>
                            <path d="M15.1257087,8.73492823 C15.1257087,9.08669926 15.4170081,9.37186603 15.7763441,9.37186603 C16.1356801,9.37186603 16.4269795,9.08669926 16.4269795,8.73492823 C16.4269795,8.3831572 16.1356801,8.09799043 15.7763441,8.09799043 C15.4170081,8.09799043 15.1257087,8.3831572 15.1257087,8.73492823 Z" id="Shape"></path>
                        </g>
                    </g>
                </g>
            </g>
        </g>
    </g>
</svg>